# xmcd
#
# Track frame offsets:
# 150
# 21116
# 38958
# 53130
# 69398
# 90028
# 105522
# 121877
# 141641
# 161197
#
# Disc length: 2359 seconds
#
#
# Revision: 0
# Processed by: cddbd v1.5.2PL0 Copyright (c) Steve Scherf et al.
# Submitted via: FreeRIP 2.95 
#
DISCID=8009350a
DTITLE=Ramiro Viola e Pardini - Minha Terra, Minha Gente
DYEAR=2007
DGENRE=Sertanejo
TTITLE0=Minta Terra, Minha Gente
TTITLE1=Fazenda Lageado
TTITLE2=Saudades de Botucatu
TTITLE3=Saci Pererê
TTITLE4=Violeiro Matuto
TTITLE5=Filhos de Botucatu
TTITLE6=Dois Esteios
TTITLE7=Tristeza do Jeca
TTITLE8=Princesa da Serra
TTITLE9=Rio Bonito
EXTD=CD Promocional - Invendável\nContatos +55(14)3815-4088 ramiroepardini@uol.com.br
EXTT0=
EXTT1=
EXTT2=
EXTT3=
EXTT4=
EXTT5=
EXTT6=
EXTT7=
EXTT8=
EXTT9=
PLAYORDER=
